<?xml version="1.0" encoding="utf-8"?>
<!-- Generator: Adobe Illustrator 26.3.1, SVG Export Plug-In . SVG Version: 6.00 Build 0)  -->
<svg version="1.1" id="Layer_1" xmlns="http://www.w3.org/2000/svg" xmlns:xlink="http://www.w3.org/1999/xlink" x="0px" y="0px"
	 viewBox="0 0 25 25" style="enable-background:new 0 0 25 25;" xml:space="preserve">
<style type="text/css">
	.st0{fill:#FFFFFF;}
</style>
<path class="st0" d="M3.9,1.2c-1.5,0-2.7,1.2-2.7,2.7v17.3c0,1.5,1.2,2.7,2.7,2.7h17.3c1.5,0,2.7-1.2,2.7-2.7V3.9
	c0-1.5-1.2-2.7-2.7-2.7H3.9z M3.9,2.2h17.3c0.9,0,1.6,0.7,1.6,1.6v17.3c0,0.9-0.7,1.6-1.6,1.6H3.9c-0.9,0-1.6-0.7-1.6-1.6V3.9
	C2.2,3,3,2.2,3.9,2.2z M7,5.5C6.5,5.5,6,5.7,5.6,6S5,6.7,5,7.2C5,8.2,5.8,8.9,6.8,9c0,0,0,0,0,0c0,0,0.1,0,0.2,0c1.1,0,2-0.8,2-1.8
	c0,0,0,0,0,0C8.9,6.3,8.1,5.5,7,5.5z M7,6.5c0.7,0,1,0.3,1,0.8C8,7.7,7.7,8,7,8C6.3,8,6,7.7,6,7.2C6,7,6.1,6.9,6.2,6.7
	C6.4,6.6,6.6,6.5,7,6.5z M5.5,9.5C5.2,9.5,5,9.7,5,10v9.5C5,19.8,5.2,20,5.5,20h3C8.8,20,9,19.8,9,19.5v-2.9V10
	c0-0.3-0.2-0.5-0.5-0.5H5.5z M10,9.5c-0.3,0-0.5,0.2-0.5,0.5v9.5c0,0.3,0.2,0.5,0.5,0.5h3c0.3,0,0.5-0.2,0.5-0.5v-5
	c0-0.4,0.1-0.8,0.3-1.1s0.5-0.4,0.9-0.4c0.5,0,0.8,0.2,1,0.4c0.2,0.3,0.3,0.7,0.3,1.1v5c0,0.3,0.2,0.5,0.5,0.5h3
	c0.3,0,0.5-0.2,0.5-0.5v-5.4c0-1.5-0.4-2.7-1.2-3.4S17,9.5,15.9,9.5c-1.1,0-1.9,0.4-2.4,0.7V10c0-0.3-0.2-0.5-0.5-0.5H10z M6,10.5h2
	v6.1V19H6V10.5z M10.5,10.5h2v0.8c0,0.3,0.2,0.5,0.5,0.5c0.2,0,0.3-0.1,0.4-0.2c0,0,0.8-1.1,2.5-1.1c0.9,0,1.6,0.3,2.2,0.9
	s0.9,1.5,0.9,2.8V19h-2v-4.5c0-0.6-0.1-1.2-0.5-1.7s-1-0.8-1.7-0.8c-0.8,0-1.4,0.3-1.8,0.8s-0.5,1.1-0.5,1.7V19h-2V10.5z"/>
</svg>
