<?xml version="1.0" encoding="utf-8"?>
<!-- Generator: Adobe Illustrator 26.3.1, SVG Export Plug-In . SVG Version: 6.00 Build 0)  -->
<svg version="1.1" xmlns="http://www.w3.org/2000/svg" xmlns:xlink="http://www.w3.org/1999/xlink" x="0px" y="0px"
	 viewBox="0 0 25 25" style="enable-background:new 0 0 25 25" xml:space="preserve">
<g id="Layer_1">
	<path class="st0" d="M2.6,4.2c-1.3,0-2.5,1.2-2.5,2.5v11.6c0,1.3,1.2,2.5,2.5,2.5h19.9c1.3,0,2.5-1.2,2.5-2.5V6.7
		c0-1.3-1.2-2.5-2.5-2.5H2.6z M2.9,5.9h19.2l-7.5,7.3c-1.2,1.2-3.1,1.2-4.5,0L2.9,5.9z M23.3,7V18l-5.5-5.5L23.3,7z M1.7,7l5.5,5.5
		L1.7,18V7z M16.6,13.7l5.5,5.5H2.9l5.5-5.5L9,14.3c1.8,1.8,5,1.8,6.8,0L16.6,13.7z"/>
</g>
</svg>
