<?xml version="1.0" encoding="utf-8"?>
<!-- Generator: Adobe Illustrator 26.3.1, SVG Export Plug-In . SVG Version: 6.00 Build 0)  -->
<svg version="1.1" id="Layer_1" xmlns="http://www.w3.org/2000/svg" xmlns:xlink="http://www.w3.org/1999/xlink" x="0px" y="0px"
	 viewBox="0 0 25 25" style="enable-background:new 0 0 25 25;" xml:space="preserve">
<style type="text/css">
	.st0{fill:#FFFFFF;}
</style>
<path class="st0" d="M6.5,7.5C5.7,7.5,5,8.2,5,9v7c0,0.8,0.7,1.5,1.5,1.5h12c0.8,0,1.5-0.7,1.5-1.5V9c0-0.8-0.7-1.5-1.5-1.5H6.5z
	 M6.7,8.5h11.6l-4.5,4.4c-0.7,0.7-1.9,0.7-2.7,0L6.7,8.5z M19,9.2v6.6l-3.3-3.3L19,9.2z M6,9.2l3.3,3.3L6,15.8V9.2z M15,13.2
	l3.3,3.3H6.7l3.3-3.3l0.4,0.4c1.1,1.1,3,1.1,4.1,0L15,13.2z M3.9,1.2c-1.5,0-2.7,1.2-2.7,2.7v17.3c0,1.5,1.2,2.7,2.7,2.7h17.3
	c1.5,0,2.7-1.2,2.7-2.7V3.9c0-1.5-1.2-2.7-2.7-2.7H3.9z M3.9,2.2h17.3c0.9,0,1.6,0.7,1.6,1.6v17.3c0,0.9-0.7,1.6-1.6,1.6H3.9
	c-0.9,0-1.6-0.7-1.6-1.6V3.9C2.2,3,3,2.2,3.9,2.2z"/>
</svg>
