<svg width="1391" height="588" viewBox="0 0 1391 588" fill="none" xmlns="http://www.w3.org/2000/svg"><path d="M615.435 579.811h-64.499V0h64.499v579.811zm97.419.001h-63.66V173.977h63.66v405.835zm426.636-198.975v16.106H742.752c0-123.982 51.566-231.187 198.369-231.187 145.959.168 198.369 111.231 198.369 215.081zm-72.56 51.673h66.18c-6.38 90.931-83.82 155.354-191.821 155.354-99.94 0-174.182-62.746-194.338-157.871h69.371c16.964 57.209 70.21 98.313 132.19 98.313 86.168 0 111.868-61.236 118.418-95.796zm3.19-95.126c-2.35-73.315-67.69-112.741-128.999-112.741-69.37 0-124.128 48.318-128.999 112.741h257.998zm97.42-163.407h64.5v405.835h-64.5V173.977zm222.56.839v64.423c-7.23-2.348-23.35-4.026-31.41-4.026-35.44 0-70.89 13.757-94.4 34.561v-72.477c25.03-17.783 54.76-28.185 88.69-28.185 8.9 0 27.54 1.678 37.12 5.704zM712.854 0h-63.66v95.46h63.66V0zM529.769 579.811h-79.785l-63.659-171.46H143.444l-62.82 171.46H0l90.366-234.374h349.037l90.366 234.374zM103.132 312.387L223.397 0h82.975l120.097 312.387h-74.913L265.22 78.181l-86.335 234.374h-75.753v-.168z" fill="#fff"/></svg>