<?xml version="1.0" encoding="utf-8"?>
<!-- Generator: Adobe Illustrator 26.3.1, SVG Export Plug-In . SVG Version: 6.00 Build 0)  -->
<svg version="1.1" xmlns="http://www.w3.org/2000/svg" xmlns:xlink="http://www.w3.org/1999/xlink" x="0px" y="0px"
	 viewBox="0 0 25 25" style="enable-background:new 0 0 25 25" xml:space="preserve">
<g id="Layer_1">
	<path class="st0" d="M4.5,1.2c-0.7,0-1.5,0.3-2,0.7s-0.9,1-0.9,1.7c0,1.5,1.2,2.5,2.6,2.6l0,0c0,0,0.1,0,0.3,0
		c1.6,0,2.9-1.2,2.9-2.6l0,0C7.3,2.4,6.1,1.2,4.5,1.2z M4.5,2.6c1,0,1.5,0.4,1.5,1.2c0,0.6-0.4,1-1.5,1S3.1,4.4,3.1,3.7
		c0-0.3,0.1-0.4,0.3-0.7C3.7,2.8,3.9,2.6,4.5,2.6z M2.3,7C1.9,7,1.6,7.3,1.6,7.7v13.8c0,0.4,0.3,0.7,0.7,0.7h4.4
		c0.4,0,0.7-0.3,0.7-0.7v-4.2V7.7C7.4,7.3,7.1,7,6.7,7H2.3z M8.9,7C8.4,7,8.1,7.3,8.1,7.7v13.8c0,0.4,0.3,0.7,0.7,0.7h4.4
		c0.4,0,0.7-0.3,0.7-0.7v-7.3c0-0.6,0.1-1.2,0.4-1.6c0.3-0.4,0.7-0.6,1.3-0.6c0.7,0,1.2,0.3,1.5,0.6c0.3,0.4,0.4,1,0.4,1.6v7.3
		c0,0.4,0.3,0.7,0.7,0.7h4.4c0.4,0,0.7-0.3,0.7-0.7v-7.8c0-2.2-0.6-3.9-1.7-4.9S19,7,17.4,7S14.7,7.6,14,8V7.7C14,7.3,13.7,7,13.2,7
		H8.9z M3.1,8.4H6v8.8v3.5H3.1V8.4z M9.6,8.4h2.9v1.2c0,0.4,0.3,0.7,0.7,0.7c0.3,0,0.4-0.1,0.6-0.3c0,0,1.2-1.6,3.6-1.6
		c1.3,0,2.3,0.4,3.2,1.3c0.9,0.9,1.3,2.2,1.3,4.1v7H19v-6.5c0-0.9-0.1-1.7-0.7-2.5s-1.5-1.2-2.5-1.2c-1.2,0-2,0.4-2.6,1.2
		s-0.7,1.6-0.7,2.5v6.5H9.6V8.4z"/>
</g>
</svg>
