<svg fill="#fff" height="800" stroke="#fff" viewBox="0 -6.5 38 38" width="800" xmlns="http://www.w3.org/2000/svg"><path d="m187.812138 38.5802109 10.513086 10.4240604.087896.0815708c.351763.3488153.55642.8088476.58688 1.3523806l-.001752.1827201c-.025518.4305489-.190058.84187-.514308 1.2104549l-.12268.1266231-10.549122 10.4617683c-.78015.7736145-2.041567.7736145-2.821717 0-.784816-.778241-.784816-2.0435318-.000063-2.8217102l7.283906-7.2241696-29.274794.0007198c-1.102402 0-1.99947-.8895527-1.99947-1.9910973s.897068-1.9910973 1.999445-1.9910973l29.039758-.0007193-7.048782-6.9897315c-.784816-.778241-.784816-2.0435318 0-2.8217728.78015-.7736145 2.041567-.7736145 2.821717 0z" fill="#fff" stroke="none" transform="translate(-161 -38)"/></svg>